<svg viewBox="0 0 300 300" xmlns="http://www.w3.org/2000/svg">
    <!-- Cellule A -->
    <g id="cellA" transform="rotate(0, 150, 150)">
        <path d="M 285.23 113.77 A 140 140 0 0 1 285.23 186.23 L 246.59 175.88 A 100 100 0 0 0 246.59 124.12 Z" 
            fill="#FF0000" stroke="black" stroke-width="1" opacity="0.5"/>
        <text x="270" y="149" transform="rotate(90 270 149)" text-anchor="middle" dominant-baseline="middle" fill="black">
            A
        </text>
    </g>
    <!-- Cellule B -->
    <g id="cellB" transform="rotate(30, 150, 150)">
        <path d="M 285.23 113.77 A 140 140 0 0 1 285.23 186.23 L 246.59 175.88 A 100 100 0 0 0 246.59 124.12 Z" 
            fill="#FF8000" stroke="black" stroke-width="1" opacity="0.5"/>
        <text x="270" y="149" transform="rotate(90 270 149)" text-anchor="middle" dominant-baseline="middle" fill="black">
            B
        </text>
    </g>
    <!-- Cellule C -->
    <g id="cellC" transform="rotate(60, 150, 150)">
        <path d="M 285.23 113.77 A 140 140 0 0 1 285.23 186.23 L 246.59 175.88 A 100 100 0 0 0 246.59 124.12 Z" 
            fill="#FFFF00" stroke="black" stroke-width="1" opacity="0.5"/>
        <text x="270" y="149" transform="rotate(90 270 149)" text-anchor="middle" dominant-baseline="middle" fill="black">
            C
        </text>
    </g>
    <!-- Cellule D -->
    <g id="cellD" transform="rotate(90, 150, 150)">
        <path d="M 285.23 113.77 A 140 140 0 0 1 285.23 186.23 L 246.59 175.88 A 100 100 0 0 0 246.59 124.12 Z" 
            fill="#80FF00" stroke="black" stroke-width="1" opacity="0.5"/>
        <text x="270" y="149" transform="rotate(90 270 149)" text-anchor="middle" dominant-baseline="middle" fill="black">
            D
        </text>
    </g>
    <!-- Cellule E -->
    <g id="cellE" transform="rotate(120, 150, 150)">
        <path d="M 285.23 113.77 A 140 140 0 0 1 285.23 186.23 L 246.59 175.88 A 100 100 0 0 0 246.59 124.12 Z" 
            fill="#00FF00" stroke="black" stroke-width="1" opacity="0.5"/>
        <text x="270" y="149" transform="rotate(90 270 149)" text-anchor="middle" dominant-baseline="middle" fill="black">
            E
        </text>
    </g>
    <!-- Cellule F -->
    <g id="cellF" transform="rotate(150, 150, 150)">
        <path d="M 285.23 113.77 A 140 140 0 0 1 285.23 186.23 L 246.59 175.88 A 100 100 0 0 0 246.59 124.12 Z" 
            fill="#00FF80" stroke="black" stroke-width="1" opacity="0.5"/>
        <text x="270" y="149" transform="rotate(90 270 149)" text-anchor="middle" dominant-baseline="middle" fill="black">
            F
        </text>
    </g>
    <!-- Cellule G -->
    <g id="cellG" transform="rotate(180, 150, 150)">
        <path d="M 285.23 113.77 A 140 140 0 0 1 285.23 186.23 L 246.59 175.88 A 100 100 0 0 0 246.59 124.12 Z" 
            fill="#00FFFF" stroke="black" stroke-width="1" opacity="0.5"/>
        <text x="270" y="149" transform="rotate(90 270 149)" text-anchor="middle" dominant-baseline="middle" fill="black">
            G
        </text>
    </g>
    <!-- Cellule H -->
    <g id="cellH" transform="rotate(210, 150, 150)">
        <path d="M 285.23 113.77 A 140 140 0 0 1 285.23 186.23 L 246.59 175.88 A 100 100 0 0 0 246.59 124.12 Z" 
            fill="#0080FF" stroke="black" stroke-width="1" opacity="0.5"/>
        <text x="270" y="149" transform="rotate(90 270 149)" text-anchor="middle" dominant-baseline="middle" fill="black">
            H
        </text>
    </g>
    <!-- Cellule I -->
    <g id="cellI" transform="rotate(240, 150, 150)">
        <path d="M 285.23 113.77 A 140 140 0 0 1 285.23 186.23 L 246.59 175.88 A 100 100 0 0 0 246.59 124.12 Z" 
            fill="#0000FF" stroke="black" stroke-width="1" opacity="0.5"/>
        <text x="270" y="149" transform="rotate(90 270 149)" text-anchor="middle" dominant-baseline="middle" fill="black">
            I
        </text>
    </g>
    <!-- Cellule J -->
    <g id="cellJ" transform="rotate(270, 150, 150)">
        <path d="M 285.23 113.77 A 140 140 0 0 1 285.23 186.23 L 246.59 175.88 A 100 100 0 0 0 246.59 124.12 Z" 
            fill="#8000FF" stroke="black" stroke-width="1" opacity="0.5"/>
        <text x="270" y="149" transform="rotate(90 270 149)" text-anchor="middle" dominant-baseline="middle" fill="black">
            J
        </text>
    </g>
    <!-- Cellule K -->
    <g id="cellK" transform="rotate(300, 150, 150)">
        <path d="M 285.23 113.77 A 140 140 0 0 1 285.23 186.23 L 246.59 175.88 A 100 100 0 0 0 246.59 124.12 Z" 
            fill="#FF00FF" stroke="black" stroke-width="1" opacity="0.5"/>
        <text x="270" y="149" transform="rotate(90 270 149)" text-anchor="middle" dominant-baseline="middle" fill="black">
            K
        </text>
    </g>
    <!-- Cellule L -->
    <g id="cellL" transform="rotate(330, 150, 150)">
        <path d="M 285.23 113.77 A 140 140 0 0 1 285.23 186.23 L 246.59 175.88 A 100 100 0 0 0 246.59 124.12 Z" 
            fill="#FF0080" stroke="black" stroke-width="1" opacity="0.5"/>
        <text x="270" y="149" transform="rotate(90 270 149)" text-anchor="middle" dominant-baseline="middle" fill="black">
            L
        </text>
    </g>
</svg>
