<svg xmlns="http://www.w3.org/2000/svg"
     version="1.1"
     x="0px"
     y="0px"
     viewBox="0 0 100 100">
  <g transform="translate(0, -952.36215)">
    <path style="text-indent:0;text-transform:none;direction:ltr;block-progression:tb;baseline-shift:baseline;color:#000000;enable-background:accumulate;"
          d="M 35.781213,966.37422
             A 2.0001581,1.9989966 0 0 0 34,968.40425
             l 0,24.07926
             c 0,8.09489 6.124549,14.78649 13.99971,15.77169
             l 0,16.4277
             c -2.872806,0.8722 -4.999896,3.5418 -4.999896,6.6835
             0,3.84 3.15763,6.9958 6.999855,6.9958
             3.842224,0 6.999855,-3.1558 6.999855,-6.9958
             0,-3.1417 -2.12709,-5.8113 -4.999896,-6.6835
             l 0,-16.4277
             c 7.875161,-0.9852 13.99971,-7.6768 13.99971,-15.77169
             l 0,-24.07926
             a 2.0001581,1.9989966 0 1 0 -3.999917,0
             l 0,24.07926
             c 0,6.61013 -5.308976,11.89899 -11.999752,11.89899
             -6.690777,0 -11.999752,-5.28886 -11.999752,-11.89899
             l 0,-24.07926
             a 2.0001581,1.9989966 0 0 0 -2.218704,-2.03003
             z
             m 14.218456,61.99398
             c 1.680509,0 2.999938,1.3186 2.999938,2.9982
             0,1.6794 -1.319429,2.9982 -2.999938,2.9982
             -1.680509,0 -2.999938,-1.3188 -2.999938,-2.9982
             0,-1.6796 1.319429,-2.9982 2.999938,-2.9982
             z"
          fill="#6b5240"
          fill-opacity="1"
          stroke="none"
          marker="none"
          visibility="visible"
          display="inline"
          overflow="visible"/>
  </g>
</svg>
